<?xml version="1.0" encoding="UTF-8" standalone="no"?>
<!-- Generator: Adobe Illustrator 19.0.0, SVG Export Plug-In . SVG Version: 6.00 Build 0)  -->

<svg
   xmlns:dc="http://purl.org/dc/elements/1.1/"
   xmlns:cc="http://creativecommons.org/ns#"
   xmlns:rdf="http://www.w3.org/1999/02/22-rdf-syntax-ns#"
   xmlns:svg="http://www.w3.org/2000/svg"
   xmlns="http://www.w3.org/2000/svg"
   xmlns:sodipodi="http://sodipodi.sourceforge.net/DTD/sodipodi-0.dtd"
   xmlns:inkscape="http://www.inkscape.org/namespaces/inkscape"
   version="1.1"
   id="Capa_1"
   x="0px"
   y="0px"
   viewBox="0 0 431.76 431.76"
   style="enable-background:new 0 0 431.76 431.76;"
   xml:space="preserve"
   sodipodi:docname="001-creative.svg"
   inkscape:version="0.92.3 (2405546, 2018-03-11)"><metadata
   id="metadata91"><rdf:RDF><cc:Work
       rdf:about=""><dc:format>image/svg+xml</dc:format><dc:type
         rdf:resource="http://purl.org/dc/dcmitype/StillImage" /></cc:Work></rdf:RDF></metadata><defs
   id="defs89" /><sodipodi:namedview
   pagecolor="#ffffff"
   bordercolor="#666666"
   borderopacity="1"
   objecttolerance="10"
   gridtolerance="10"
   guidetolerance="10"
   inkscape:pageopacity="0"
   inkscape:pageshadow="2"
   inkscape:window-width="1043"
   inkscape:window-height="702"
   id="namedview87"
   showgrid="false"
   inkscape:zoom="0.54659995"
   inkscape:cx="-81.412375"
   inkscape:cy="215.88"
   inkscape:window-x="136"
   inkscape:window-y="35"
   inkscape:window-maximized="0"
   inkscape:current-layer="Capa_1" />
<g
   id="g6"
   style="fill:#3b3b3b;fill-opacity:1">
	<g
   id="g4"
   style="fill:#3b3b3b;fill-opacity:1">
		<path
   d="M215.88,85.12C153.556,85.164,103.044,135.676,103,198c0.557,40.682,20.351,78.696,53.36,102.48V382    c0.027,0.932,0.216,1.853,0.56,2.72v0.64c0.138,0.33,0.299,0.651,0.48,0.96l28.16,41.92c1.49,2.205,3.979,3.524,6.64,3.52h46.56    c2.661,0.004,5.15-1.315,6.64-3.52l28.16-41.92c0.181-0.309,0.342-0.63,0.48-0.96v-0.64c0.344-0.867,0.533-1.788,0.56-2.72v-81.52    c33.01-23.784,52.803-61.798,53.36-102.48C327.918,135.987,277.891,85.603,215.88,85.12z M234.92,416h-38.08l-17.44-25.92h72.88    L234.92,416z M172.44,374.08v-21.2h86.88l0.08,21.2H172.44z M263,289.52l0,0.24c-2.259,1.487-3.613,4.015-3.6,6.72v40.64h-86.96    V296c0.013-2.705-1.341-5.233-3.6-6.72c-30.628-20.467-49.233-54.687-49.76-91.52c1.537-53.483,46.14-95.594,99.623-94.057    c51.323,1.475,92.582,42.734,94.057,94.057C312.312,234.679,293.697,269.005,263,289.52z"
   id="path2"
   style="fill:#3b3b3b;fill-opacity:1" />
	</g>
</g>
<g
   id="g12"
   style="fill:#3b3b3b;fill-opacity:1">
	<g
   id="g10"
   style="fill:#3b3b3b;fill-opacity:1">
		<path
   d="M219.08,121.36c-4.418,0-8,3.582-8,8s3.582,8,8,8c33.251,0.044,60.196,26.989,60.24,60.24c0,4.418,3.582,8,8,8    s8-3.582,8-8C295.276,155.512,261.168,121.404,219.08,121.36z"
   id="path8"
   style="fill:#3b3b3b;fill-opacity:1" />
	</g>
</g>
<g
   id="g18"
   style="fill:#3b3b3b;fill-opacity:1">
	<g
   id="g16"
   style="fill:#3b3b3b;fill-opacity:1">
		<path
   d="M81.48,189.6h-57.6c-4.418,0-8,3.582-8,8s3.582,8,8,8h57.6c4.418,0,8-3.582,8-8c0,0,0,0,0,0    C89.48,193.182,85.898,189.6,81.48,189.6z"
   id="path14"
   style="fill:#3b3b3b;fill-opacity:1" />
	</g>
</g>
<g
   id="g24"
   style="fill:#3b3b3b;fill-opacity:1">
	<g
   id="g22"
   style="fill:#3b3b3b;fill-opacity:1">
		<path
   d="M407.88,189.6h-57.6c-4.418,0-8,3.582-8,8s3.582,8,8,8h57.6c4.418,0,8-3.582,8-8S412.298,189.6,407.88,189.6z"
   id="path20"
   style="fill:#3b3b3b;fill-opacity:1" />
	</g>
</g>
<g
   id="g30"
   style="fill:#3b3b3b;fill-opacity:1">
	<g
   id="g28"
   style="fill:#3b3b3b;fill-opacity:1">
		<path
   d="M127.313,287.12c-2.874-3.356-7.924-3.747-11.28-0.873c-0.313,0.268-0.605,0.56-0.873,0.873v-0.16L74.28,328    c-3.356,2.874-3.747,7.924-0.873,11.28c2.874,3.356,7.924,3.747,11.28,0.873c0.313-0.268,0.605-0.56,0.873-0.873l40.88-40.88    C129.796,295.526,130.187,290.476,127.313,287.12z"
   id="path26"
   style="fill:#3b3b3b;fill-opacity:1" />
	</g>
</g>
<g
   id="g36"
   style="fill:#3b3b3b;fill-opacity:1">
	<g
   id="g34"
   style="fill:#3b3b3b;fill-opacity:1">
		<path
   d="M356.607,56c-2.995-2.565-7.412-2.565-10.407,0l-40.88,40.88c-3.137,3.111-3.158,8.177-0.047,11.314    c1.513,1.526,3.577,2.379,5.727,2.366l-0.08-0.08c2.126,0.012,4.17-0.823,5.68-2.32l40.88-40.88    C360.354,63.924,359.963,58.874,356.607,56z"
   id="path32"
   style="fill:#3b3b3b;fill-opacity:1" />
	</g>
</g>
<g
   id="g42"
   style="fill:#3b3b3b;fill-opacity:1">
	<g
   id="g40"
   style="fill:#3b3b3b;fill-opacity:1">
		<path
   d="M359.067,329.609c-0.45-0.609-0.984-1.151-1.587-1.609l-40.88-41.04c-2.874-3.356-7.924-3.747-11.28-0.873    c-3.356,2.874-3.747,7.924-0.873,11.28c0.268,0.313,0.56,0.605,0.873,0.873l40.88,40.88c2.626,3.553,7.636,4.304,11.189,1.678    S361.693,333.162,359.067,329.609z"
   id="path38"
   style="fill:#3b3b3b;fill-opacity:1" />
	</g>
</g>
<g
   id="g48"
   style="fill:#3b3b3b;fill-opacity:1">
	<g
   id="g46"
   style="fill:#3b3b3b;fill-opacity:1">
		<path
   d="M126.44,96.88L85.56,56c-3.356-2.874-8.406-2.483-11.28,0.873c-2.565,2.995-2.565,7.412,0,10.407l40.88,40.88    c3.356,2.874,8.406,2.483,11.28-0.873C129.005,104.292,129.005,99.875,126.44,96.88z"
   id="path44"
   style="fill:#3b3b3b;fill-opacity:1" />
	</g>
</g>
<g
   id="g54"
   style="fill:#3b3b3b;fill-opacity:1">
	<g
   id="g52"
   style="fill:#3b3b3b;fill-opacity:1">
		<path
   d="M215.88,0c-4.418,0-8,3.582-8,8v57.84c-0.133,4.416,3.34,8.104,7.756,8.236c0.081,0.002,0.162,0.004,0.244,0.004    c4.418,0,8-3.582,8-8V8C223.88,3.582,220.298,0,215.88,0z"
   id="path50"
   style="fill:#3b3b3b;fill-opacity:1" />
	</g>
</g>
<g
   id="g56"
   style="fill:#3b3b3b;fill-opacity:1">
</g>
<g
   id="g58"
   style="fill:#3b3b3b;fill-opacity:1">
</g>
<g
   id="g60"
   style="fill:#3b3b3b;fill-opacity:1">
</g>
<g
   id="g62"
   style="fill:#3b3b3b;fill-opacity:1">
</g>
<g
   id="g64"
   style="fill:#3b3b3b;fill-opacity:1">
</g>
<g
   id="g66"
   style="fill:#3b3b3b;fill-opacity:1">
</g>
<g
   id="g68"
   style="fill:#3b3b3b;fill-opacity:1">
</g>
<g
   id="g70"
   style="fill:#3b3b3b;fill-opacity:1">
</g>
<g
   id="g72"
   style="fill:#3b3b3b;fill-opacity:1">
</g>
<g
   id="g74"
   style="fill:#3b3b3b;fill-opacity:1">
</g>
<g
   id="g76"
   style="fill:#3b3b3b;fill-opacity:1">
</g>
<g
   id="g78"
   style="fill:#3b3b3b;fill-opacity:1">
</g>
<g
   id="g80"
   style="fill:#3b3b3b;fill-opacity:1">
</g>
<g
   id="g82"
   style="fill:#3b3b3b;fill-opacity:1">
</g>
<g
   id="g84"
   style="fill:#3b3b3b;fill-opacity:1">
</g>
</svg>