<?xml version="1.0" encoding="UTF-8" standalone="no"?>
<!-- Generator: Adobe Illustrator 19.0.0, SVG Export Plug-In . SVG Version: 6.00 Build 0)  -->

<svg
   xmlns:dc="http://purl.org/dc/elements/1.1/"
   xmlns:cc="http://creativecommons.org/ns#"
   xmlns:rdf="http://www.w3.org/1999/02/22-rdf-syntax-ns#"
   xmlns:svg="http://www.w3.org/2000/svg"
   xmlns="http://www.w3.org/2000/svg"
   xmlns:sodipodi="http://sodipodi.sourceforge.net/DTD/sodipodi-0.dtd"
   xmlns:inkscape="http://www.inkscape.org/namespaces/inkscape"
   version="1.1"
   id="Capa_1"
   x="0px"
   y="0px"
   viewBox="0 0 512 512"
   style="enable-background:new 0 0 512 512;"
   xml:space="preserve"
   sodipodi:docname="destination.svg"
   inkscape:version="0.92.4 (5da689c313, 2019-01-14)"><metadata
   id="metadata103"><rdf:RDF><cc:Work
       rdf:about=""><dc:format>image/svg+xml</dc:format><dc:type
         rdf:resource="http://purl.org/dc/dcmitype/StillImage" /></cc:Work></rdf:RDF></metadata><defs
   id="defs101" /><sodipodi:namedview
   pagecolor="#ffffff"
   bordercolor="#666666"
   borderopacity="1"
   objecttolerance="10"
   gridtolerance="10"
   guidetolerance="10"
   inkscape:pageopacity="0"
   inkscape:pageshadow="2"
   inkscape:window-width="983"
   inkscape:window-height="726"
   id="namedview99"
   showgrid="false"
   inkscape:zoom="0.4609375"
   inkscape:cx="256"
   inkscape:cy="256"
   inkscape:window-x="0"
   inkscape:window-y="0"
   inkscape:window-maximized="0"
   inkscape:current-layer="Capa_1" />
<g
   id="g6"
   style="fill:#3b3b3b;fill-opacity:1">
	<g
   id="g4"
   style="fill:#3b3b3b;fill-opacity:1">
		<path
   d="M502,401.004h-17V146.17c0-26.008-20.302-47.35-45.888-49.045C432.851,57.44,398.418,26.992,357,26.992    c-41.375,0-75.778,30.386-82.091,70.012H76.167C49.056,97.004,27,119.06,27,146.17v254.833H10c-5.523,0-10,4.477-10,10    c0,40.804,33.196,74,74,74h50.333c5.523,0,10-4.477,10-10s-4.477-10-10-10H74c-26.359,0-48.368-18.986-53.072-44H37h438h16.072    c-4.704,25.014-26.713,44-53.072,44H202.874c-5.523,0-10,4.477-10,10s4.477,10,10,10H438c40.804,0,74-33.196,74-74    C512,405.481,507.523,401.004,502,401.004z M357,46.992c34.813,0,63.136,28.323,63.136,63.136c0,14.488-5.032,28.642-14.17,39.853    c-0.107,0.131-0.21,0.265-0.31,0.401l-48.658,62.367l-48.047-61.555c-0.2-0.304-0.417-0.599-0.652-0.883    c-9.309-11.268-14.436-25.538-14.436-40.183C293.864,75.315,322.187,46.992,357,46.992z M47,401.004v-85.237l61.842,23.395    l23.395,61.842H47z M128.238,333.909l16.2-16.2c3.905-3.905,3.905-10.237,0-14.143c-3.905-3.905-10.237-3.905-14.143,0l-16.2,16.2    l-43.852-16.589l99.934-25.35l-25.35,99.934L128.238,333.909z M465,401.003H159.564l34.129-134.54    c0.867-3.417-0.129-7.038-2.622-9.53c-2.493-2.492-6.113-3.489-9.53-2.622L47,288.44V146.17c0-16.083,13.084-29.167,29.167-29.167    h197.988c1.379,16.54,7.698,32.405,18.16,45.353c0.112,0.162,0.228,0.321,0.35,0.477l56.453,72.324    c1.895,2.428,4.804,3.848,7.884,3.847c3.081,0,5.989-1.42,7.883-3.849l56.723-72.705c0.02-0.025,0.039-0.05,0.058-0.076    c10.411-12.872,16.729-28.654,18.158-45.091c14.2,1.952,25.176,14.158,25.176,28.887V401.003z"
   id="path2"
   style="fill:#3b3b3b;fill-opacity:1" />
	</g>
</g>
<g
   id="g12"
   style="fill:#3b3b3b;fill-opacity:1">
	<g
   id="g10"
   style="fill:#3b3b3b;fill-opacity:1">
		<path
   d="M173.93,467.928c-1.86-1.86-4.43-2.92-7.07-2.92c-2.63,0-5.21,1.06-7.07,2.92c-1.86,1.86-2.92,4.44-2.92,7.08    c0,2.63,1.06,5.21,2.92,7.07c1.86,1.86,4.44,2.93,7.07,2.93c2.64,0,5.21-1.07,7.07-2.93c1.87-1.86,2.93-4.44,2.93-7.07    C176.86,472.368,175.8,469.788,173.93,467.928z"
   id="path8"
   style="fill:#3b3b3b;fill-opacity:1" />
	</g>
</g>
<g
   id="g18"
   style="fill:#3b3b3b;fill-opacity:1">
	<g
   id="g16"
   style="fill:#3b3b3b;fill-opacity:1">
		<path
   d="M280,433.004h-48c-5.523,0-10,4.477-10,10s4.477,10,10,10h48c5.523,0,10-4.477,10-10S285.523,433.004,280,433.004z"
   id="path14"
   style="fill:#3b3b3b;fill-opacity:1" />
	</g>
</g>
<g
   id="g24"
   style="fill:#3b3b3b;fill-opacity:1">
	<g
   id="g22"
   style="fill:#3b3b3b;fill-opacity:1">
		<path
   d="M357,69.295c-23.159,0-42,18.841-42,42s18.841,42,42,42s42-18.841,42-42S380.159,69.295,357,69.295z M357,133.295    c-12.131,0-22-9.869-22-22s9.869-22,22-22c12.131,0,22,9.869,22,22S369.131,133.295,357,133.295z"
   id="path20"
   style="fill:#3b3b3b;fill-opacity:1" />
	</g>
</g>
<g
   id="g30"
   style="fill:#3b3b3b;fill-opacity:1">
	<g
   id="g28"
   style="fill:#3b3b3b;fill-opacity:1">
		<path
   d="M256,185.004H92c-5.523,0-10,4.477-10,10c0,5.523,4.477,10,10,10h164c5.523,0,10-4.477,10-10    C266,189.481,261.523,185.004,256,185.004z"
   id="path26"
   style="fill:#3b3b3b;fill-opacity:1" />
	</g>
</g>
<g
   id="g36"
   style="fill:#3b3b3b;fill-opacity:1">
	<g
   id="g34"
   style="fill:#3b3b3b;fill-opacity:1">
		<path
   d="M297.07,187.928c-1.86-1.86-4.44-2.92-7.07-2.92s-5.21,1.06-7.07,2.92c-1.86,1.87-2.93,4.44-2.93,7.08    c0,2.63,1.07,5.21,2.93,7.07c1.86,1.86,4.44,2.93,7.07,2.93s5.21-1.07,7.07-2.93c1.86-1.87,2.93-4.44,2.93-7.07    C300,192.368,298.93,189.798,297.07,187.928z"
   id="path32"
   style="fill:#3b3b3b;fill-opacity:1" />
	</g>
</g>
<g
   id="g42"
   style="fill:#3b3b3b;fill-opacity:1">
	<g
   id="g40"
   style="fill:#3b3b3b;fill-opacity:1">
		<path
   d="M226,138.004h-49.667c-5.523,0-10,4.477-10,10c0,5.523,4.478,10,10,10H226c5.523,0,10-4.477,10-10    C236,142.481,231.523,138.004,226,138.004z"
   id="path38"
   style="fill:#3b3b3b;fill-opacity:1" />
	</g>
</g>
<g
   id="g48"
   style="fill:#3b3b3b;fill-opacity:1">
	<g
   id="g46"
   style="fill:#3b3b3b;fill-opacity:1">
		<path
   d="M437.086,347.004H315.667c-5.523,0-10,4.477-10,10s4.477,10,10,10h121.419c5.523,0,10-4.477,10-10    S442.609,347.004,437.086,347.004z"
   id="path44"
   style="fill:#3b3b3b;fill-opacity:1" />
	</g>
</g>
<g
   id="g54"
   style="fill:#3b3b3b;fill-opacity:1">
	<g
   id="g52"
   style="fill:#3b3b3b;fill-opacity:1">
		<path
   d="M437.086,282.004H399c-5.523,0-10,4.477-10,10s4.477,10,10,10h38.086c5.523,0,10-4.477,10-10    S442.609,282.004,437.086,282.004z"
   id="path50"
   style="fill:#3b3b3b;fill-opacity:1" />
	</g>
</g>
<g
   id="g60"
   style="fill:#3b3b3b;fill-opacity:1">
	<g
   id="g58"
   style="fill:#3b3b3b;fill-opacity:1">
		<path
   d="M290,229.004h-74c-5.523,0-10,4.477-10,10c0,5.523,4.477,10,10,10h74c5.523,0,10-4.477,10-10    C300,233.481,295.523,229.004,290,229.004z"
   id="path56"
   style="fill:#3b3b3b;fill-opacity:1" />
	</g>
</g>
<g
   id="g66"
   style="fill:#3b3b3b;fill-opacity:1">
	<g
   id="g64"
   style="fill:#3b3b3b;fill-opacity:1">
		<path
   d="M357,247.918c-5.523,0-10,4.477-10,10v8.043c0,8.846-7.197,16.043-16.043,16.043h-75.164    c-19.874,0-36.043,16.169-36.043,36.043v28.957H197c-5.523,0-10,4.477-10,10s4.477,10,10,10h65.5c5.523,0,10-4.477,10-10    s-4.477-10-10-10h-22.75v-28.957c0-8.846,7.197-16.043,16.043-16.043h75.164c19.874,0,36.043-16.169,36.043-36.043v-8.043    C367,252.395,362.523,247.918,357,247.918z"
   id="path62"
   style="fill:#3b3b3b;fill-opacity:1" />
	</g>
</g>
<g
   id="g68">
</g>
<g
   id="g70">
</g>
<g
   id="g72">
</g>
<g
   id="g74">
</g>
<g
   id="g76">
</g>
<g
   id="g78">
</g>
<g
   id="g80">
</g>
<g
   id="g82">
</g>
<g
   id="g84">
</g>
<g
   id="g86">
</g>
<g
   id="g88">
</g>
<g
   id="g90">
</g>
<g
   id="g92">
</g>
<g
   id="g94">
</g>
<g
   id="g96">
</g>
</svg>