<?xml version="1.0" encoding="UTF-8" standalone="no"?>
<!-- Generator: Adobe Illustrator 19.0.0, SVG Export Plug-In . SVG Version: 6.00 Build 0)  -->

<svg
   xmlns:dc="http://purl.org/dc/elements/1.1/"
   xmlns:cc="http://creativecommons.org/ns#"
   xmlns:rdf="http://www.w3.org/1999/02/22-rdf-syntax-ns#"
   xmlns:svg="http://www.w3.org/2000/svg"
   xmlns="http://www.w3.org/2000/svg"
   xmlns:sodipodi="http://sodipodi.sourceforge.net/DTD/sodipodi-0.dtd"
   xmlns:inkscape="http://www.inkscape.org/namespaces/inkscape"
   version="1.1"
   id="Capa_1"
   x="0px"
   y="0px"
   viewBox="0 0 512 512"
   style="enable-background:new 0 0 512 512;"
   xml:space="preserve"
   sodipodi:docname="smartphone.svg"
   inkscape:version="0.92.4 (5da689c313, 2019-01-14)"><metadata
   id="metadata67"><rdf:RDF><cc:Work
       rdf:about=""><dc:format>image/svg+xml</dc:format><dc:type
         rdf:resource="http://purl.org/dc/dcmitype/StillImage" /></cc:Work></rdf:RDF></metadata><defs
   id="defs65" /><sodipodi:namedview
   pagecolor="#ffffff"
   bordercolor="#666666"
   borderopacity="1"
   objecttolerance="10"
   gridtolerance="10"
   guidetolerance="10"
   inkscape:pageopacity="0"
   inkscape:pageshadow="2"
   inkscape:window-width="1188"
   inkscape:window-height="772"
   id="namedview63"
   showgrid="false"
   inkscape:zoom="0.4609375"
   inkscape:cx="256"
   inkscape:cy="256"
   inkscape:window-x="0"
   inkscape:window-y="0"
   inkscape:window-maximized="0"
   inkscape:current-layer="Capa_1" />
<g
   id="g6"
   style="fill:#3b3b3b;fill-opacity:1">
	<g
   id="g4"
   style="fill:#3b3b3b;fill-opacity:1">
		<path
   d="M298.667,25.6h-85.333c-4.71,0-8.533,3.823-8.533,8.533c0,4.71,3.823,8.533,8.533,8.533h85.333    c4.71,0,8.533-3.823,8.533-8.533C307.2,29.423,303.377,25.6,298.667,25.6z"
   id="path2"
   style="fill:#3b3b3b;fill-opacity:1" />
	</g>
</g>
<g
   id="g12"
   style="fill:#3b3b3b;fill-opacity:1">
	<g
   id="g10"
   style="fill:#3b3b3b;fill-opacity:1">
		<path
   d="M358.4,25.6h-8.533c-4.71,0-8.533,3.823-8.533,8.533c0,4.71,3.823,8.533,8.533,8.533h8.533    c4.71,0,8.533-3.823,8.533-8.533C366.933,29.423,363.11,25.6,358.4,25.6z"
   id="path8"
   style="fill:#3b3b3b;fill-opacity:1" />
	</g>
</g>
<g
   id="g18"
   style="fill:#3b3b3b;fill-opacity:1">
	<g
   id="g16"
   style="fill:#3b3b3b;fill-opacity:1">
		<path
   d="M266.598,435.2H245.41c-12.979,0-23.543,10.564-23.543,23.543v4.122c0,12.979,10.564,23.535,23.535,23.535h21.188    c12.979,0,23.543-10.556,23.543-23.535v-4.122C290.133,445.764,279.569,435.2,266.598,435.2z M273.067,462.865    c0,3.567-2.901,6.468-6.468,6.468H245.41c-3.575,0-6.477-2.901-6.477-6.468v-4.122c0-3.575,2.901-6.477,6.477-6.477h21.18    c3.576,0,6.477,2.901,6.477,6.477V462.865z"
   id="path14"
   style="fill:#3b3b3b;fill-opacity:1" />
	</g>
</g>
<g
   id="g24"
   style="fill:#3b3b3b;fill-opacity:1">
	<g
   id="g22"
   style="fill:#3b3b3b;fill-opacity:1">
		<path
   d="M370.227,0H141.781c-17.007,0-30.848,13.841-30.848,30.848v450.304c0,17.007,13.841,30.848,30.848,30.848h228.437    c17.007,0,30.848-13.841,30.848-30.839V30.848C401.067,13.841,387.226,0,370.227,0z M384,481.152    c0,7.595-6.178,13.781-13.773,13.781H141.781c-7.603,0-13.781-6.187-13.781-13.773V30.848c0-7.595,6.178-13.781,13.781-13.781    h228.437c7.603,0,13.781,6.187,13.781,13.781V481.152z"
   id="path20"
   style="fill:#3b3b3b;fill-opacity:1" />
	</g>
</g>
<g
   id="g30"
   style="fill:#3b3b3b;fill-opacity:1">
	<g
   id="g28"
   style="fill:#3b3b3b;fill-opacity:1">
		<path
   d="M392.533,51.2H119.467c-4.71,0-8.533,3.823-8.533,8.533v358.4c0,4.71,3.823,8.533,8.533,8.533h273.067    c4.71,0,8.533-3.823,8.533-8.533v-358.4C401.067,55.023,397.244,51.2,392.533,51.2z M384,409.6H128V68.267h256V409.6z"
   id="path26"
   style="fill:#3b3b3b;fill-opacity:1" />
	</g>
</g>
<g
   id="g32">
</g>
<g
   id="g34">
</g>
<g
   id="g36">
</g>
<g
   id="g38">
</g>
<g
   id="g40">
</g>
<g
   id="g42">
</g>
<g
   id="g44">
</g>
<g
   id="g46">
</g>
<g
   id="g48">
</g>
<g
   id="g50">
</g>
<g
   id="g52">
</g>
<g
   id="g54">
</g>
<g
   id="g56">
</g>
<g
   id="g58">
</g>
<g
   id="g60">
</g>
</svg>